<svg xmlns="http://www.w3.org/2000/svg" viewBox="0 0 24 24" id="Building-Real-Eastate-House-2--Streamline-Pixel" height="24" width="24">
  <desc fill="#ffffff">
    Building Real Eastate House 2 Streamline Icon: https://streamlinehq.com
  </desc>
  <title>building-real-eastate-house-2</title>
  <g>
    <path d="M22.86 5.14125H24v2.2874999999999996h-1.1400000000000001Z" fill="#ffffff" stroke-width="0.75"/>
    <path d="M21.72 4.00125h1.1400000000000001v1.1400000000000001h-1.1400000000000001Z" fill="#ffffff" stroke-width="0.75"/>
    <path d="M19.4325 7.428749999999999h3.4275v1.1400000000000001h-3.4275Z" fill="#ffffff" stroke-width="0.75"/>
    <path d="M8.0025 7.425000000000001H6.862500000000001v1.1400000000000001H5.715v1.1475H4.574999999999999v1.1400000000000001H3.435V12H2.2874999999999996v2.2800000000000002h1.1475v9.1425h17.137500000000003V14.283750000000001h1.1475v-2.2800000000000002h-1.1475v-1.1475h-1.1400000000000001v-1.1400000000000001h-1.1400000000000001v-1.1475h-1.1475V7.425000000000001h-1.1400000000000001V6.28875h-1.1475v-1.1475h-1.1400000000000001v-1.1400000000000001h-1.1400000000000001v-1.1475h-1.1475v1.1475h-1.1400000000000001v1.1400000000000001h-1.1475v1.1475h-1.1400000000000001Zm3.4275 12.57h-1.1400000000000001v-2.2874999999999996h1.1400000000000001Zm-2.2874999999999996 -11.43h1.1475V7.425000000000001h1.1400000000000001V6.28875h1.1475V7.425000000000001h1.1400000000000001v1.1400000000000001h1.1400000000000001v1.1475h1.1475v1.1400000000000001h1.1400000000000001V12h1.1475v1.1400000000000001h1.1400000000000001v4.5675h-2.2874999999999996v1.1475h2.2874999999999996v3.4275h-4.574999999999999v-6.855h-1.1400000000000001v-1.1475h-3.4275v1.1475h-1.1475v6.855H4.574999999999999V21.15h2.2874999999999996v-1.1475H4.574999999999999V16.575000000000003h2.2874999999999996v-1.1400000000000001H4.574999999999999v-2.2874999999999996h1.1400000000000001v-1.1400000000000001h1.1475v-1.1475h1.1400000000000001v-1.1400000000000001h1.1400000000000001Z" fill="#ffffff" stroke-width="0.75"/>
    <path d="M18.2925 2.8537500000000002h3.4275v1.1475h-3.4275Z" fill="#ffffff" stroke-width="0.75"/>
    <path d="M18.2925 6.28875h1.1400000000000001v1.1400000000000001h-1.1400000000000001Z" fill="#ffffff" stroke-width="0.75"/>
    <path d="M17.145 15.431249999999999h1.1475v1.1400000000000001h-1.1475Z" fill="#ffffff" stroke-width="0.75"/>
    <path d="M17.145 4.00125h1.1475v2.2874999999999996h-1.1475Z" fill="#ffffff" stroke-width="0.75"/>
    <path d="M16.005 19.99875h2.2874999999999996v1.1475h-2.2874999999999996Z" fill="#ffffff" stroke-width="0.75"/>
    <path d="M14.857499999999998 12.00375h2.2874999999999996v1.1400000000000001h-2.2874999999999996Z" fill="#ffffff" stroke-width="0.75"/>
    <path d="M11.43 8.568750000000001h2.2874999999999996v1.1475h-2.2874999999999996Z" fill="#ffffff" stroke-width="0.75"/>
    <path d="M10.290000000000001 10.85625h2.2874999999999996v1.1475h-2.2874999999999996Z" fill="#ffffff" stroke-width="0.75"/>
    <path d="M6.862500000000001 12.00375h2.2800000000000002v1.1400000000000001H6.862500000000001Z" fill="#ffffff" stroke-width="0.75"/>
    <path d="M6.862500000000001 2.8537500000000002h1.1400000000000001v2.2874999999999996H6.862500000000001Z" fill="#ffffff" stroke-width="0.75"/>
    <path d="M5.715 17.71125h2.2874999999999996v1.1475H5.715Z" fill="#ffffff" stroke-width="0.75"/>
    <path d="M5.715 1.71375h1.1475v1.1400000000000001H5.715Z" fill="#ffffff" stroke-width="0.75"/>
    <path d="M2.2874999999999996 0.57375h3.4275v1.1400000000000001H2.2874999999999996Z" fill="#ffffff" stroke-width="0.75"/>
    <path d="M1.1475 5.14125h5.715v1.1475H1.1475Z" fill="#ffffff" stroke-width="0.75"/>
    <path d="M1.1475 1.71375h1.1400000000000001v1.1400000000000001H1.1475Z" fill="#ffffff" stroke-width="0.75"/>
    <path d="M0 2.8537500000000002h1.1475v2.2874999999999996H0Z" fill="#ffffff" stroke-width="0.75"/>
  </g>
</svg>